<?xml version="1.0" encoding="utf-8"?>
<!-- Generator: Adobe Illustrator 24.0.1, SVG Export Plug-In . SVG Version: 6.00 Build 0)  -->
<svg version="1.1" id="Capa_1" xmlns="http://www.w3.org/2000/svg" xmlns:xlink="http://www.w3.org/1999/xlink" x="0px" y="0px"
	 viewBox="0 0 321.5 321.5" style="enable-background:new 0 0 321.5 321.5;" xml:space="preserve">
<style type="text/css">
	.st0{fill:none;}
	.st1{fill:#FFFFFF;}
</style>
<circle cx="160.8" cy="160.8" r="160.8"/>
<g>
	<path class="st0" d="M54.8,48.2h204v231h-204V48.2z"/>
</g>
<path class="st1" d="M211.8,177.7H225v26.5h-13.2V177.7z M70.6,177.7H203v26.5H70.6V177.7z M194.4,126.5h-13.5
	c-9,0-16.3-8.7-16.3-17.7s7.3-15.5,16.3-15.5V80.1c-16.3,0-29.6,13.3-29.6,29.6s13.2,29.6,29.6,29.6h13.5c9.3,0,17.4,6.5,17.4,18.1
	v11.5H225v-14.5C225,138.4,210.9,126.5,194.4,126.5z M233.9,177.7h13.2v26.5h-13.2V177.7z M219.3,104.6c5.5-5.4,8.8-12.8,8.8-21
	c0-16.4-13.2-29.6-29.6-29.6v13.3c9,0,16.3,7.3,16.3,16.4s-7.3,16.4-16.3,16.4v13.3c19.8,0,35.3,16.2,35.3,36v19.7h13.2v-19.8
	C247.1,129.5,235.8,112.5,219.3,104.6z"/>
</svg>
