<?xml version="1.0" encoding="utf-8"?>
<!-- Generator: Adobe Illustrator 24.0.1, SVG Export Plug-In . SVG Version: 6.00 Build 0)  -->
<svg version="1.1" id="Capa_1" xmlns="http://www.w3.org/2000/svg" xmlns:xlink="http://www.w3.org/1999/xlink" x="0px" y="0px"
	 viewBox="0 0 321.5 321.5" style="enable-background:new 0 0 321.5 321.5;" xml:space="preserve">
<style type="text/css">
	.st0{fill:#FFFFFF;}
</style>
<circle cx="160.8" cy="160.8" r="160.8"/>
<g>
	<g>
		<path class="st0" d="M154.7,172.9v-47.8c0-6.6-5.4-11.9-12-11.9H94.6V89.3h60.1V65.4h-30V53.4h-24v11.9h-18c-6.6,0-12,5.4-12,11.9
			v47.8c0,6.6,5.4,11.9,12,11.9h48.1v23.9H70.6v23.9h30v11.9h24v-11.9h18C149.3,184.8,154.7,179.5,154.7,172.9z"/>
		<polygon class="st0" points="257.9,167.2 189.9,234.6 155.9,200.8 139,217.8 189.9,268.4 274.9,184 		"/>
	</g>
</g>
</svg>
